# xmcd
#
# Track frame offsets: 
#        150
#        16050
#        34288
#        56442
#        75696
#        94418
#        113217
#        131943
#        153710
#        172360
#        191104
#        210836
#        232166
#        251778
#        267858
#        287440
#        306530
#
# Disc length: 4360 seconds
#
# Revision: 8
# Processed by: cddbd v1.5.2PL0 Copyright (c) Steve Scherf et al.
# Submitted via: ExactAudioCopy v1.1
#
DISCID=00110611
DTITLE=ZONE - E ～Complete A side Singles～
DYEAR=2005
DGENRE=JPop
TTITLE0=GOOD DAYS
TTITLE1=大爆発No. 1
TTITLE2=secret base～君がくれたもの～
TTITLE3=世界のほんの片隅から
TTITLE4=夢ノカケラ…
TTITLE5=一雫
TTITLE6=証
TTITLE7=白い花
TTITLE8=true blue
TTITLE9=恋々…
TTITLE10=H・A・N・A・B・I ～君がいた夏～
TTITLE11=僕の手紙
TTITLE12=卒業
TTITLE13=太陽のKiss
TTITLE14=glory colors ～風のトビラ～
TTITLE15=笑顔日和
TTITLE16=believe in love
EXTD=YEAR: 2005
EXTT0=
EXTT1=
EXTT2=
EXTT3=
EXTT4=
EXTT5=
EXTT6=
EXTT7=
EXTT8=
EXTT9=
EXTT10=
EXTT11=
EXTT12=
EXTT13=
EXTT14=
EXTT15=
EXTT16=
PLAYORDER=
